<!DOCTYPE svg PUBLIC "-//W3C//DTD SVG 1.1//EN" "http://www.w3.org/Graphics/SVG/1.1/DTD/svg11.dtd"><svg width="100%" height="100%" viewBox="0 0 41 6" version="1.1" xmlns="http://www.w3.org/2000/svg" xmlns:xlink="http://www.w3.org/1999/xlink" xml:space="preserve" xmlns:serif="http://www.serif.com/" style="fill-rule:evenodd;clip-rule:evenodd;stroke-linecap:round;stroke-linejoin:round;stroke-miterlimit:1.5;"><g><g transform="matrix(0.0225742,0,0,0.0225742,-1.13783,-8.04848)"><text x="51.451px" y="611.773px" style="font-family:'HelveticaNeue-BoldItalic', 'Helvetica Neue';font-weight:700;font-style:italic;font-size:349.164px;fill:#fff;">MEG</text><text x="1096.85px" y="611.773px" style="font-family:'HelveticaNeue-LightItalic', 'Helvetica Neue';font-weight:300;font-style:italic;font-size:349.164px;fill:#fff;">BITE</text></g><g><path d="M22.832,3.043c0.067,-0.076 0.109,-0.186 0.109,-0.307c0,-0.229 -0.148,-0.413 -0.333,-0.42c-0.003,-0.008 -0.005,-0.015 -0.008,-0.022c-0.115,-0.316 -0.254,-0.627 -0.421,-0.923c-0.169,-0.297 -0.367,-0.588 -0.619,-0.833c-0.098,-0.095 -0.205,-0.185 -0.325,-0.256c-0.079,-0.047 -0.214,-0.133 -0.312,-0.123c-0.114,0.012 -0.237,0.088 -0.328,0.147c-0.122,0.079 -0.23,0.177 -0.328,0.281c-0.252,0.265 -0.445,0.578 -0.609,0.894c-0.134,0.26 -0.247,0.529 -0.345,0.803c-0.004,0.012 -0.009,0.022 -0.012,0.034c-0.171,0.024 -0.303,0.201 -0.303,0.416c0,0.088 0.041,0.193 0.095,0.282c-0.221,0.886 -0.282,1.892 -0.203,2.799c0.002,0.022 0.022,0.039 0.046,0.039c0.394,-0.004 3.395,-0.024 4.08,-0.002c0.025,0.002 0.047,-0.017 0.049,-0.041c0.008,-0.104 0.017,-0.211 0.02,-0.316c0.037,-0.82 -0.047,-1.65 -0.253,-2.452Zm-1.177,-2.284c0.017,-0.007 0.037,-0.002 0.047,0.014c0.007,0.008 0.007,0.02 0.01,0.03c0.005,0.02 0.017,0.036 0.034,0.051c0.002,0.001 0.002,0.001 0.003,0.003c0.034,0.034 0.049,0.103 -0.01,0.124c-0.057,0.018 -0.11,-0.044 -0.123,-0.088c-0.012,-0.038 -0.007,-0.114 0.039,-0.134Zm-1.465,0.098c0,-0.002 0.002,-0.002 0.004,-0.003c0.018,-0.017 0.029,-0.032 0.034,-0.054c0.001,-0.01 0.003,-0.021 0.01,-0.029c0.01,-0.014 0.03,-0.019 0.047,-0.012c0.046,0.019 0.051,0.095 0.041,0.132c-0.012,0.044 -0.066,0.107 -0.124,0.088c-0.059,-0.02 -0.045,-0.088 -0.012,-0.122Zm2.559,4.285c-0,0.002 -0,0.005 -0.002,0.008c-0.005,0.034 -0.049,0.039 -0.063,0.009c-0.164,-0.359 -0.519,-0.602 -0.896,-0.754c-0.248,-0.1 -0.544,-0.193 -0.818,-0.191l-0.002,-0c-0.272,-0.007 -0.57,0.089 -0.815,0.189c-0.379,0.152 -0.735,0.396 -0.899,0.756c-0.014,0.03 -0.058,0.025 -0.063,-0.009l0,-0.008c-0.081,-0.646 -0.057,-1.321 0.137,-1.95l0,-0.001c0.002,-0.007 0.003,-0.012 0.005,-0.019c0,-0.002 0,-0.002 0.002,-0.003c0.002,-0.004 0.003,-0.009 0.005,-0.014c0.01,-0.027 0.017,-0.052 0.024,-0.076c0.015,-0.046 0.032,-0.09 0.049,-0.134c0.174,-0.444 0.47,-0.913 0.955,-1.119c0.223,-0.095 0.446,-0.101 0.688,-0.103c0.237,-0 0.469,0.064 0.666,0.182c0.462,0.278 0.722,0.773 0.873,1.245c-0,0.003 0.002,0.005 0.002,0.008c0.001,0.004 0.001,0.007 0.003,0.011c0.002,0.006 0.005,0.015 0.007,0.022l-0,0.001c0.196,0.633 0.223,1.304 0.142,1.95Zm-0.092,-0.276c0.016,-0.012 0.038,-0.02 0.058,-0.027c-0.002,0.036 -0.005,0.071 -0.009,0.107c-0.03,-0.007 -0.04,-0.043 -0.049,-0.08Zm-0.157,-0.26c0.027,-0.019 0.064,-0.029 0.098,-0.026c-0.018,0.049 -0.027,0.109 -0.02,0.163c-0.002,-0.002 -0.003,-0.004 -0.005,-0.007c-0.026,-0.032 -0.046,-0.066 -0.063,-0.103c-0.005,-0.007 -0.006,-0.017 -0.01,-0.027Zm-0.015,-1.51c0.012,0.008 0.024,0.018 0.035,0.029c0.011,0.03 0.021,0.06 0.031,0.091c-0.039,0.054 -0.11,0.073 -0.181,0.064c0.019,-0.025 0.03,-0.057 0.041,-0.083c0.015,-0.039 0.027,-0.079 0.03,-0.121c0.015,0.005 0.03,0.01 0.044,0.02Zm-0.323,1.314c-0.003,-0.007 -0.005,-0.014 -0.008,-0.021c0.028,-0.059 0.076,-0.086 0.13,-0.118c0.022,0.103 0.034,0.206 0.113,0.284c-0.042,0.005 -0.081,-0.005 -0.118,-0.025c-0.049,-0.029 -0.093,-0.073 -0.117,-0.12Zm0.076,-1.309c0.019,-0.052 0.025,-0.107 0.031,-0.161c0.005,-0.05 -0,-0.123 0.033,-0.167c0.061,0.068 0.022,0.161 0.049,0.242c0,0.003 0.002,0.005 0.004,0.008c-0.026,0.041 -0.065,0.075 -0.117,0.078Zm0.301,1.66c0.024,0.031 0.058,0.054 0.071,0.09c0.002,0.003 0.002,0.007 0.003,0.01c0.002,0.004 0.002,0.007 0.004,0.012c0.005,0.02 0.008,0.042 0.02,0.061c0.017,0.029 0.039,0.047 0.068,0.052c-0.002,0.021 -0.004,0.041 -0.007,0.061c-0.113,-0.196 -0.279,-0.358 -0.475,-0.487c-0.086,-0.057 -0.178,-0.108 -0.274,-0.152c-0.125,-0.059 -0.257,-0.108 -0.391,-0.147c-0.003,-0.002 -0.008,-0.002 -0.011,-0.004c-0.093,-0.027 -0.188,-0.049 -0.281,-0.067c-0.097,-0.019 -0.196,-0.036 -0.296,-0.034c-0.179,-0.003 -0.367,0.041 -0.541,0.091c-0.01,0.004 -0.019,0.005 -0.029,0.009c-0.02,0.007 -0.04,0.012 -0.059,0.018c-0.118,0.038 -0.235,0.082 -0.348,0.136c-0.09,0.042 -0.176,0.089 -0.259,0.142c-0.005,0.003 -0.01,0.006 -0.015,0.01c-0.071,0.046 -0.137,0.096 -0.202,0.152c-0.111,0.098 -0.204,0.21 -0.275,0.335c-0.002,-0.02 -0.005,-0.041 -0.007,-0.061c0.029,-0.005 0.051,-0.024 0.068,-0.052c0.012,-0.019 0.013,-0.041 0.018,-0.061c0.002,-0.004 0.002,-0.007 0.004,-0.012c-0,-0.004 0.001,-0.007 0.003,-0.01c0.014,-0.036 0.046,-0.058 0.069,-0.088c0.026,-0.031 0.046,-0.065 0.065,-0.1c0.01,-0.02 0.013,-0.037 0.022,-0.049c0.008,-0.014 0.02,-0.02 0.045,-0.02c0.059,-0 0.109,-0.005 0.161,-0.036c0.005,-0.003 0.012,-0.007 0.017,-0.012c0.005,-0.003 0.01,-0.006 0.013,-0.01c0.034,-0.025 0.063,-0.059 0.083,-0.093c0.002,-0.003 0.009,-0.02 0.014,-0.034c0.003,-0.01 0.008,-0.018 0.01,-0.02c0.017,-0.007 0.046,0.012 0.064,0.014c0.032,0.003 0.061,-0.002 0.085,-0.014c0.072,-0.032 0.115,-0.115 0.14,-0.186c0.066,0.036 0.145,0.054 0.222,0.046c0.016,-0.002 0.033,-0.005 0.049,-0.01c0.008,-0.004 0.018,-0.007 0.027,-0.011c0.015,-0.006 0.028,-0.013 0.04,-0.023c0.014,-0.009 0.02,-0.017 0.029,-0.024c0.007,-0.005 0.013,-0.008 0.025,-0.012c0.027,-0.008 0.068,-0.001 0.097,-0.007c0.079,-0.01 0.152,-0.038 0.216,-0.084c0.02,-0.014 0.059,-0.061 0.095,-0.088c0.007,-0.005 0.013,-0.01 0.02,-0.014c0.009,-0.005 0.017,-0.008 0.024,-0.008c0.007,0 0.013,0.003 0.022,0.007c0.007,0.003 0.013,0.007 0.018,0.013c0.036,0.027 0.076,0.075 0.098,0.09c0.065,0.044 0.137,0.073 0.217,0.084c0.029,0.006 0.069,-0.001 0.096,0.007c0.012,0.004 0.021,0.007 0.026,0.012c0.008,0.007 0.015,0.014 0.028,0.024c0.022,0.017 0.048,0.027 0.075,0.035c0.003,0 0.008,0.002 0.012,0.004c0.01,0.001 0.02,0.003 0.032,0.005c0.076,0.008 0.155,-0.009 0.221,-0.046c0.026,0.071 0.068,0.154 0.141,0.186c0.022,0.01 0.047,0.015 0.076,0.015c0.017,0 0.055,-0.02 0.067,-0.015c0.002,0 0.004,0.002 0.005,0.005c0.004,0.004 0.007,0.009 0.009,0.015c0.007,0.012 0.012,0.027 0.015,0.036c0.024,0.04 0.058,0.076 0.098,0.105c0.005,0.003 0.012,0.008 0.017,0.012c0.054,0.032 0.1,0.032 0.161,0.035c0.025,0.002 0.035,0.007 0.044,0.017c0.006,0.008 0.01,0.022 0.02,0.042c0.032,0.032 0.054,0.07 0.081,0.103Zm-0.448,-1.904c-0.015,0.009 -0.036,0.016 -0.051,0.024c0.009,-0.034 0.01,-0.078 0.012,-0.088c0.01,-0.079 0.015,-0.159 0.012,-0.238c-0.002,-0.032 -0,-0.073 -0.012,-0.107c0.012,0.004 0.025,0.009 0.032,0.014c0.041,0.022 0.063,0.067 0.08,0.106c0.008,0.022 0.032,0.132 0.067,0.18c-0.04,0.042 -0.086,0.079 -0.14,0.109Zm-0.235,1.329c0.002,-0.077 0.078,-0.16 0.139,-0.219c0.015,0.05 0.03,0.103 0.044,0.154c0.011,0.045 0.023,0.091 0.033,0.136c0.005,0.026 0.019,0.063 0.014,0.09c-0.042,0.007 -0.064,0.025 -0.108,0.005c-0.068,-0.029 -0.1,-0.101 -0.122,-0.166Zm-0.069,-1.55c-0.007,-0.113 -0.038,-0.23 -0.017,-0.342l0.005,0c0.089,0.005 0.133,0.063 0.171,0.131c0.006,0.013 0.013,0.025 0.02,0.035c-0.029,0.081 -0.105,0.13 -0.179,0.176Zm-0.303,1.52c-0.003,-0.017 0.013,-0.049 0.017,-0.063c0.012,-0.038 0.027,-0.076 0.042,-0.113c0.017,-0.042 0.036,-0.116 0.069,-0.16c0.053,0.115 0.085,0.255 0.168,0.355c-0.08,0.037 -0.183,0.05 -0.261,0.006c-0.016,-0.008 -0.028,-0.017 -0.035,-0.025Zm-0.056,-1.721c-0.012,-0.073 -0.017,-0.146 -0.039,-0.215c0.043,-0.022 0.083,-0.056 0.13,-0.057c0.077,-0.004 0.102,0.057 0.137,0.104c0.011,0.014 0.021,0.022 0.031,0.026c-0.049,0.086 -0.102,0.172 -0.162,0.253c-0.012,0.016 -0.022,0.043 -0.043,0.038c-0.017,-0.004 -0.025,-0.036 -0.03,-0.05c-0.012,-0.032 -0.017,-0.065 -0.024,-0.099Zm-0.372,1.549c-0.008,-0.007 -0.017,-0.017 -0.027,-0.024c-0.002,-0.061 0.051,-0.13 0.081,-0.179c0.031,-0.048 0.061,-0.095 0.097,-0.139c0.035,0.164 0.084,0.355 0.196,0.487c-0.053,-0.002 -0.103,-0.007 -0.154,-0.022c-0.074,-0.027 -0.135,-0.073 -0.193,-0.123Zm0.063,-1.57c-0.048,-0.086 -0.129,-0.233 -0.1,-0.334c0.008,-0.002 0.017,-0.004 0.025,-0.004c0.051,-0.001 0.093,0.019 0.131,0.048c0.04,0.032 0.076,0.093 0.13,0.108l0.001,-0c-0.028,0.062 -0.067,0.123 -0.113,0.177c-0.008,0.009 -0.025,0.034 -0.039,0.043c-0.008,0.005 -0.008,0.006 -0.008,0.008c-0.01,-0.007 -0.021,-0.034 -0.027,-0.046Zm-0.431,1.691c-0.051,0.017 -0.102,0.021 -0.154,0.022c0.111,-0.132 0.16,-0.323 0.194,-0.487c0.036,0.044 0.066,0.093 0.097,0.141c0.03,0.05 0.081,0.12 0.079,0.181c-0.008,0.006 -0.017,0.015 -0.024,0.022c-0.055,0.05 -0.115,0.096 -0.192,0.121Zm0.131,-1.691c-0.006,0.011 -0.016,0.039 -0.028,0.046c-0.002,-0.002 -0.004,-0.005 -0.009,-0.007c-0.013,-0.01 -0.027,-0.028 -0.039,-0.042c-0.045,-0.054 -0.084,-0.115 -0.113,-0.179c0.02,-0.007 0.039,-0.02 0.058,-0.036c0.033,-0.03 0.064,-0.064 0.099,-0.088c0.027,-0.017 0.056,-0.028 0.093,-0.03l0.014,-0c0.008,-0 0.017,0.002 0.025,0.003c0.029,0.1 -0.052,0.249 -0.1,0.333Zm-0.355,0.164c-0.027,0.012 -0.033,-0.013 -0.049,-0.033c-0.061,-0.08 -0.113,-0.164 -0.16,-0.251c0.035,-0.017 0.05,-0.067 0.074,-0.094c0.071,-0.075 0.147,-0.022 0.222,0.015c-0.021,0.064 -0.027,0.132 -0.038,0.198c-0.005,0.037 -0.011,0.074 -0.023,0.11c-0.005,0.015 -0.012,0.05 -0.026,0.055Zm-0.304,1.598c0.081,-0.099 0.115,-0.24 0.167,-0.355c0.034,0.044 0.053,0.119 0.07,0.161c0.015,0.037 0.028,0.074 0.04,0.113c0.005,0.014 0.021,0.046 0.019,0.063c-0.009,0.008 -0.019,0.017 -0.036,0.027c-0.077,0.042 -0.181,0.029 -0.26,-0.009Zm-0.007,-1.54c-0.074,-0.046 -0.149,-0.093 -0.179,-0.174c0.029,-0.027 0.041,-0.085 0.068,-0.113c0.032,-0.034 0.072,-0.053 0.121,-0.055l0.007,0c0.02,0.112 -0.01,0.229 -0.017,0.342Zm-0.301,1.713c-0.005,-0.026 0.007,-0.063 0.012,-0.086c0.01,-0.048 0.022,-0.097 0.036,-0.144c0.013,-0.051 0.028,-0.103 0.044,-0.154c0.06,0.061 0.137,0.144 0.138,0.221c-0.02,0.06 -0.049,0.127 -0.108,0.159c-0.039,0.022 -0.073,0.016 -0.113,0.005c-0.004,0 -0.005,0 -0.009,-0.001Zm-0.005,-1.492c-0.052,-0.03 -0.1,-0.067 -0.138,-0.111c0.025,-0.037 0.042,-0.11 0.049,-0.132c0.016,-0.051 0.054,-0.164 0.128,-0.166c-0.01,0.031 -0.01,0.068 -0.012,0.098c-0.003,0.083 0.002,0.166 0.012,0.247c0.002,0.009 0.005,0.054 0.012,0.088c-0.014,-0.008 -0.036,-0.015 -0.051,-0.024Zm-0.145,0.242c-0.053,-0.001 -0.092,-0.035 -0.115,-0.078c-0,-0.001 0.001,-0.005 0.003,-0.008c0.027,-0.081 -0.012,-0.174 0.049,-0.242c0.034,0.044 0.029,0.119 0.034,0.168c0.002,0.055 0.01,0.11 0.029,0.16Zm-0.159,1.456c0.079,-0.078 0.091,-0.181 0.111,-0.284c0.055,0.032 0.102,0.059 0.131,0.118c-0.002,0.004 -0.002,0.007 -0.004,0.011c-0.022,0.052 -0.069,0.101 -0.122,0.13c-0.03,0.017 -0.067,0.028 -0.103,0.027c-0.003,-0 -0.008,-0.002 -0.013,-0.002Zm-0.032,-1.532c-0.024,0.01 -0.048,0.019 -0.071,0.032c0.032,-0.091 0.069,-0.182 0.111,-0.274c0.151,-0.321 0.366,-0.622 0.678,-0.815c0.193,-0.118 0.416,-0.184 0.648,-0.184c0.238,0 0.462,0.007 0.68,0.105c0.392,0.177 0.654,0.526 0.826,0.893c0.039,0.083 0.075,0.167 0.105,0.252c0.004,0.006 0.005,0.015 0.009,0.022c-0.024,-0.014 -0.048,-0.022 -0.073,-0.034c0,-0 -0.002,-0 -0.003,-0.002c-0.032,-0.015 -0.032,-0.024 -0.034,-0.057c-0.004,-0.061 -0.004,-0.122 -0.029,-0.173c-0.008,-0.02 -0.022,-0.039 -0.04,-0.056c-0.002,-0.003 -0.006,-0.005 -0.009,-0.006c-0.007,-0.006 -0.012,-0.011 -0.02,-0.016c-0.01,-0.006 -0.024,-0.001 -0.029,0.007c-0.008,0.012 -0.005,0.005 -0.012,-0.015c-0.005,-0.019 -0.012,-0.036 -0.017,-0.054c-0.012,-0.039 -0.023,-0.078 -0.042,-0.117c-0.032,-0.068 -0.085,-0.127 -0.171,-0.127c-0.005,-0.001 -0.01,0 -0.013,0.002c-0.005,0.002 -0.009,0.003 -0.01,0.008c-0.002,0.006 -0.004,0.009 -0.004,0.012c-0.005,-0.01 -0.01,-0.022 -0.017,-0.032c-0.018,-0.034 -0.039,-0.066 -0.069,-0.091c-0.032,-0.027 -0.073,-0.044 -0.117,-0.049c-0.013,-0.002 -0.025,-0 -0.035,-0c-0.007,-0 -0.012,0.002 -0.017,0.002c-0.02,0.001 -0.037,-0 -0.054,-0.022c-0.041,-0.055 -0.075,-0.112 -0.154,-0.115c-0.053,-0.002 -0.105,0.022 -0.149,0.047c-0.012,0.007 -0.022,0.012 -0.03,0.015c-0.039,0.015 -0.056,0.002 -0.095,-0.035c-0.066,-0.065 -0.135,-0.12 -0.238,-0.109c-0.007,0 -0.016,0.002 -0.022,0.002c-0.041,0.002 -0.08,-0.005 -0.12,-0.003c-0.007,-0 -0.016,0.001 -0.022,0.001c-0.039,0.005 -0.073,0.022 -0.104,0.043c-0.01,0.006 -0.02,0.015 -0.028,0.023c-0.029,0.024 -0.051,0.06 -0.085,0.08c-0.017,0.01 -0.034,0.01 -0.052,0.005c-0.002,-0 -0.004,-0.002 -0.005,-0.002c-0.039,-0.013 -0.078,-0.047 -0.114,-0.057c-0.079,-0.022 -0.143,0.005 -0.189,0.066c-0.019,0.025 -0.03,0.057 -0.059,0.064l-0.004,-0c-0.005,-0 -0.01,0.002 -0.015,0.002c-0.008,-0 -0.017,-0 -0.025,-0.002c-0.017,-0.002 -0.036,-0.003 -0.051,-0c-0.025,0.005 -0.049,0.013 -0.071,0.027c-0.037,0.022 -0.064,0.056 -0.084,0.091c-0.009,0.015 -0.019,0.031 -0.024,0.046c-0,0.002 -0.002,0.003 -0.002,0.005c0,-0.003 -0.002,-0.007 -0.005,-0.012c-0.002,-0.003 -0.005,-0.007 -0.01,-0.008c-0.003,-0.002 -0.005,-0.002 -0.008,-0.002l-0.006,-0c-0.086,-0.002 -0.138,0.057 -0.17,0.127c-0.019,0.037 -0.031,0.076 -0.043,0.116c-0.005,0.017 -0.008,0.034 -0.015,0.05c-0.002,0.003 -0.005,0.021 -0.01,0.023c0,-0.002 -0.002,-0.003 -0.003,-0.005c-0.005,-0.008 -0.021,-0.013 -0.029,-0.007c-0.007,0.005 -0.014,0.01 -0.02,0.016c-0.004,0.001 -0.007,0.005 -0.009,0.006c-0.018,0.017 -0.03,0.036 -0.04,0.056c-0.024,0.051 -0.026,0.112 -0.027,0.173c-0.002,0.035 -0,0.042 -0.034,0.057c0.005,0.003 0.001,0.003 -0,0.005Zm-0.124,0.191c0.009,-0.03 0.019,-0.059 0.029,-0.089c0.007,-0.007 0.014,-0.012 0.02,-0.017c0.021,-0.017 0.043,-0.026 0.063,-0.034c0.002,0.04 0.015,0.083 0.03,0.122c0.01,0.027 0.022,0.057 0.041,0.082c-0.073,0.011 -0.144,-0.008 -0.183,-0.064Zm-0.045,1.366c0.033,-0.003 0.072,0.007 0.099,0.028c0,0.001 -0.001,0.005 -0.001,0.006c-0.016,0.037 -0.036,0.073 -0.059,0.107c-0.006,0.008 -0.012,0.015 -0.019,0.022c0.005,-0.056 -0.002,-0.115 -0.02,-0.163Zm-0.11,0.366c-0.004,-0.036 -0.007,-0.071 -0.009,-0.107c0.021,0.007 0.043,0.015 0.058,0.027c-0.007,0.037 -0.017,0.073 -0.049,0.08Z" style="fill:#fff;fill-rule:nonzero;"/><path d="M22.631,2.411l0.161,0.528c0.018,-0.034 0.098,-0.201 0.059,-0.339c-0.043,-0.15 -0.209,-0.184 -0.22,-0.189Z" style="fill:#fff;stroke:#fff;stroke-width:0.24px;"/><path d="M19.153,2.91l0.167,-0.526c-0.034,0.018 -0.195,0.11 -0.241,0.246c-0.049,0.148 0.067,0.27 0.074,0.28Z" style="fill:#fff;stroke:#fff;stroke-width:0.24px;"/></g></g></svg>