<?xml version="1.0" encoding="UTF-8" standalone="no"?><!DOCTYPE svg PUBLIC "-//W3C//DTD SVG 1.1//EN" "http://www.w3.org/Graphics/SVG/1.1/DTD/svg11.dtd"><svg width="100%" height="100%" viewBox="0 0 60 60" version="1.1" xmlns="http://www.w3.org/2000/svg" xmlns:xlink="http://www.w3.org/1999/xlink" xml:space="preserve" xmlns:serif="http://www.serif.com/" style="fill-rule:evenodd;clip-rule:evenodd;stroke-linecap:round;stroke-linejoin:round;stroke-miterlimit:1.5;"><g><g transform="matrix(0.0225742,0,0,0.0225742,8.97297,17.4332)"><g transform="matrix(349.164,0,0,349.164,51.4515,611.773)"><path d="M0.147,-0.714l-0.15,0.714l0.148,-0l0.107,-0.568l0.002,0l0.069,0.568l0.12,-0l0.302,-0.568l0.002,0l-0.13,0.568l0.147,-0l0.151,-0.714l-0.219,0l-0.275,0.517l-0.002,-0l-0.055,-0.517l-0.217,0Z" style="fill:#fff;fill-rule:nonzero;"/></g><g transform="matrix(349.164,0,0,349.164,368.143,611.773)"><path d="M0.146,-0.714l-0.149,0.714l0.55,-0l0.028,-0.132l-0.394,0l0.037,-0.175l0.359,0l0.026,-0.122l-0.359,0l0.032,-0.153l0.388,0l0.027,-0.132l-0.545,0Z" style="fill:#fff;fill-rule:nonzero;"/></g><g transform="matrix(349.164,0,0,349.164,601.035,611.773)"><path d="M0.536,-0.073l0,0.073l0.099,-0l0.082,-0.386l-0.303,0l-0.025,0.117l0.165,0c-0.007,0.023 -0.015,0.043 -0.025,0.063c-0.011,0.019 -0.024,0.035 -0.039,0.048c-0.016,0.013 -0.035,0.024 -0.056,0.032c-0.022,0.007 -0.048,0.011 -0.078,0.011c-0.029,0 -0.053,-0.005 -0.073,-0.015c-0.021,-0.01 -0.037,-0.023 -0.05,-0.04c-0.013,-0.017 -0.023,-0.037 -0.029,-0.059c-0.007,-0.022 -0.01,-0.045 -0.01,-0.07c0,-0.034 0.005,-0.069 0.014,-0.104c0.009,-0.036 0.024,-0.069 0.043,-0.098c0.019,-0.029 0.043,-0.052 0.073,-0.071c0.029,-0.018 0.064,-0.027 0.104,-0.027c0.044,0 0.079,0.009 0.104,0.028c0.025,0.018 0.039,0.049 0.041,0.093l0.157,0c0,-0.044 -0.008,-0.082 -0.024,-0.113c-0.016,-0.032 -0.038,-0.058 -0.065,-0.079c-0.027,-0.021 -0.059,-0.036 -0.096,-0.046c-0.037,-0.01 -0.076,-0.015 -0.118,-0.015c-0.06,0 -0.114,0.012 -0.163,0.035c-0.048,0.023 -0.089,0.055 -0.123,0.095c-0.033,0.039 -0.059,0.085 -0.077,0.137c-0.018,0.052 -0.027,0.107 -0.027,0.165c-0,0.102 0.027,0.18 0.082,0.234c0.055,0.054 0.134,0.081 0.235,0.081c0.034,0 0.067,-0.007 0.098,-0.02c0.031,-0.014 0.059,-0.037 0.082,-0.069l0.002,0Z" style="fill:#fff;fill-rule:nonzero;"/></g><g transform="matrix(349.164,0,0,349.164,1096.85,611.773)"><path d="M0.161,-0.401l0.055,-0.255l0.22,0c0.018,0 0.035,0.002 0.05,0.006c0.016,0.004 0.03,0.01 0.041,0.019c0.012,0.009 0.021,0.021 0.028,0.035c0.007,0.015 0.01,0.032 0.01,0.052c0,0.025 -0.005,0.046 -0.015,0.063c-0.01,0.018 -0.023,0.033 -0.04,0.044c-0.017,0.011 -0.036,0.02 -0.057,0.026c-0.021,0.006 -0.044,0.009 -0.067,0.01l-0.225,-0Zm-0.001,-0.313l-0.155,0.714l0.308,-0c0.037,-0 0.073,-0.004 0.108,-0.012c0.035,-0.007 0.065,-0.02 0.091,-0.037c0.027,-0.017 0.048,-0.04 0.064,-0.069c0.016,-0.029 0.024,-0.064 0.024,-0.106c-0,-0.038 -0.011,-0.071 -0.033,-0.099c-0.021,-0.027 -0.051,-0.043 -0.089,-0.048l-0,-0.002c0.047,-0.008 0.084,-0.028 0.112,-0.059c0.029,-0.032 0.043,-0.072 0.043,-0.119c-0,-0.03 -0.005,-0.055 -0.016,-0.076c-0.01,-0.021 -0.024,-0.037 -0.042,-0.05c-0.018,-0.014 -0.039,-0.023 -0.063,-0.028c-0.023,-0.006 -0.048,-0.009 -0.075,-0.009l-0.277,0Zm-0.074,0.656l0.062,-0.285l0.215,0c0.022,0 0.043,0.002 0.064,0.005c0.02,0.003 0.038,0.01 0.053,0.02c0.016,0.009 0.029,0.022 0.038,0.039c0.009,0.016 0.014,0.037 0.014,0.063c0,0.028 -0.006,0.052 -0.018,0.072c-0.012,0.02 -0.028,0.036 -0.047,0.049c-0.019,0.013 -0.041,0.022 -0.066,0.028c-0.024,0.006 -0.048,0.009 -0.073,0.009l-0.242,0Z" style="fill:#fff;fill-rule:nonzero;"/></g><g transform="matrix(349.164,0,0,349.164,1329.74,611.773)"><path d="M0.156,-0.714l-0.151,0.714l0.068,-0l0.151,-0.714l-0.068,0Z" style="fill:#fff;fill-rule:nonzero;"/></g><g transform="matrix(349.164,0,0,349.164,1407.25,611.773)"><path d="M0.081,-0.714l-0.012,0.058l0.245,-0l-0.143,0.656l0.068,-0l0.143,-0.656l0.245,-0l0.012,-0.058l-0.558,0Z" style="fill:#fff;fill-rule:nonzero;"/></g><g transform="matrix(349.164,0,0,349.164,1601.39,611.773)"><path d="M0.157,-0.714l-0.152,0.714l0.488,-0l0.013,-0.058l-0.42,0l0.06,-0.282l0.382,0l0.013,-0.058l-0.383,0l0.055,-0.258l0.41,0l0.013,-0.058l-0.479,0Z" style="fill:#fff;fill-rule:nonzero;"/></g></g><g><path d="M32.942,28.525c0.068,-0.076 0.11,-0.186 0.11,-0.308c0,-0.228 -0.149,-0.412 -0.333,-0.419c-0.003,-0.008 -0.005,-0.015 -0.008,-0.022c-0.115,-0.316 -0.254,-0.627 -0.421,-0.923c-0.169,-0.298 -0.367,-0.589 -0.619,-0.834c-0.098,-0.094 -0.205,-0.184 -0.325,-0.255c-0.079,-0.047 -0.215,-0.134 -0.313,-0.124c-0.113,0.012 -0.236,0.088 -0.328,0.148c-0.121,0.079 -0.23,0.177 -0.328,0.28c-0.252,0.266 -0.444,0.579 -0.608,0.895c-0.134,0.26 -0.247,0.529 -0.345,0.803c-0.004,0.012 -0.009,0.022 -0.012,0.034c-0.171,0.023 -0.303,0.201 -0.303,0.416c0,0.088 0.041,0.192 0.095,0.282c-0.222,0.886 -0.283,1.892 -0.203,2.798c0.002,0.022 0.022,0.039 0.046,0.039c0.394,-0.003 3.395,-0.023 4.08,-0.001c0.025,0.001 0.047,-0.017 0.049,-0.041c0.008,-0.105 0.017,-0.211 0.02,-0.316c0.037,-0.82 -0.047,-1.65 -0.254,-2.452Zm-1.176,-2.284c0.016,-0.007 0.037,-0.002 0.047,0.013c0.007,0.009 0.007,0.021 0.01,0.031c0.005,0.02 0.017,0.035 0.034,0.05c0.002,0.002 0.002,0.002 0.003,0.004c0.034,0.034 0.049,0.103 -0.01,0.123c-0.057,0.019 -0.11,-0.044 -0.123,-0.088c-0.012,-0.037 -0.007,-0.113 0.039,-0.133Zm-1.465,0.098c0,-0.002 0.002,-0.002 0.004,-0.004c0.018,-0.016 0.028,-0.032 0.033,-0.054c0.002,-0.01 0.004,-0.02 0.011,-0.028c0.01,-0.014 0.03,-0.019 0.047,-0.012c0.046,0.018 0.051,0.094 0.04,0.132c-0.011,0.044 -0.065,0.106 -0.123,0.088c-0.059,-0.021 -0.046,-0.088 -0.012,-0.122Zm2.559,4.284c-0,0.002 -0,0.006 -0.002,0.009c-0.005,0.034 -0.049,0.039 -0.063,0.008c-0.164,-0.358 -0.519,-0.602 -0.896,-0.754c-0.248,-0.1 -0.544,-0.193 -0.818,-0.191l-0.002,0c-0.272,-0.007 -0.57,0.09 -0.815,0.19c-0.379,0.152 -0.736,0.395 -0.9,0.755c-0.013,0.031 -0.057,0.026 -0.062,-0.008l-0,-0.009c-0.081,-0.645 -0.058,-1.32 0.137,-1.949l-0,-0.002c0.002,-0.007 0.003,-0.012 0.005,-0.018c-0,-0.002 -0,-0.002 0.002,-0.004c0.001,-0.003 0.003,-0.008 0.005,-0.013c0.01,-0.027 0.017,-0.053 0.023,-0.076c0.016,-0.046 0.033,-0.09 0.049,-0.134c0.175,-0.445 0.47,-0.913 0.956,-1.119c0.223,-0.095 0.446,-0.102 0.688,-0.103c0.237,-0 0.468,0.064 0.666,0.182c0.462,0.277 0.722,0.773 0.873,1.245c-0,0.003 0.001,0.005 0.001,0.008c0.002,0.003 0.002,0.007 0.004,0.01c0.001,0.007 0.005,0.015 0.006,0.022l0,0.002c0.197,0.632 0.224,1.304 0.143,1.949Zm-0.092,-0.275c0.015,-0.012 0.037,-0.02 0.058,-0.027c-0.002,0.035 -0.005,0.071 -0.009,0.106c-0.03,-0.006 -0.04,-0.042 -0.049,-0.079Zm-0.157,-0.261c0.027,-0.018 0.064,-0.028 0.098,-0.025c-0.019,0.049 -0.027,0.108 -0.02,0.162c-0.002,-0.001 -0.004,-0.003 -0.005,-0.006c-0.026,-0.032 -0.046,-0.066 -0.063,-0.103c-0.005,-0.007 -0.007,-0.017 -0.01,-0.028Zm-0.015,-1.509c0.012,0.008 0.023,0.018 0.035,0.028c0.01,0.031 0.021,0.061 0.031,0.092c-0.039,0.054 -0.11,0.072 -0.181,0.064c0.018,-0.026 0.03,-0.058 0.04,-0.083c0.016,-0.039 0.027,-0.079 0.031,-0.122c0.015,0.005 0.03,0.01 0.044,0.021Zm-0.323,1.313c-0.004,-0.006 -0.005,-0.013 -0.009,-0.02c0.029,-0.059 0.076,-0.086 0.131,-0.118c0.021,0.103 0.033,0.206 0.113,0.284c-0.042,0.005 -0.081,-0.005 -0.119,-0.026c-0.049,-0.028 -0.093,-0.072 -0.116,-0.12Zm0.076,-1.308c0.018,-0.053 0.025,-0.107 0.03,-0.161c0.005,-0.051 0,-0.123 0.034,-0.167c0.061,0.067 0.022,0.16 0.049,0.241c0,0.004 0.002,0.005 0.004,0.009c-0.026,0.04 -0.065,0.074 -0.117,0.078Zm0.301,1.66c0.024,0.03 0.057,0.054 0.071,0.09c0.002,0.003 0.002,0.006 0.003,0.01c0.002,0.003 0.002,0.007 0.004,0.012c0.005,0.02 0.008,0.042 0.02,0.06c0.017,0.029 0.039,0.048 0.068,0.053c-0.002,0.02 -0.004,0.04 -0.007,0.061c-0.114,-0.196 -0.279,-0.359 -0.475,-0.487c-0.087,-0.058 -0.178,-0.108 -0.274,-0.152c-0.125,-0.06 -0.257,-0.109 -0.391,-0.147c-0.003,-0.002 -0.008,-0.002 -0.012,-0.004c-0.093,-0.027 -0.187,-0.049 -0.28,-0.067c-0.097,-0.019 -0.197,-0.036 -0.296,-0.034c-0.18,-0.004 -0.367,0.04 -0.541,0.091c-0.011,0.003 -0.019,0.005 -0.029,0.008c-0.02,0.007 -0.041,0.012 -0.059,0.019c-0.119,0.037 -0.235,0.081 -0.349,0.135c-0.089,0.043 -0.175,0.09 -0.258,0.142c-0.005,0.004 -0.01,0.007 -0.016,0.011c-0.071,0.045 -0.136,0.096 -0.201,0.152c-0.111,0.098 -0.204,0.209 -0.275,0.334c-0.002,-0.02 -0.005,-0.04 -0.007,-0.06c0.029,-0.005 0.051,-0.024 0.068,-0.053c0.011,-0.018 0.013,-0.04 0.018,-0.061c0.002,-0.003 0.002,-0.006 0.003,-0.012c0,-0.003 0.002,-0.006 0.004,-0.01c0.013,-0.035 0.046,-0.057 0.069,-0.088c0.026,-0.03 0.046,-0.064 0.064,-0.099c0.011,-0.021 0.014,-0.038 0.022,-0.049c0.009,-0.014 0.021,-0.021 0.046,-0.021c0.059,0 0.108,-0.005 0.161,-0.035c0.005,-0.004 0.012,-0.007 0.017,-0.012c0.005,-0.003 0.01,-0.007 0.013,-0.01c0.034,-0.026 0.063,-0.059 0.083,-0.093c0.002,-0.004 0.008,-0.02 0.014,-0.034c0.003,-0.01 0.008,-0.019 0.01,-0.02c0.017,-0.007 0.045,0.012 0.064,0.013c0.032,0.004 0.061,-0.001 0.084,-0.013c0.073,-0.032 0.115,-0.115 0.141,-0.186c0.066,0.035 0.145,0.054 0.221,0.045c0.017,-0.001 0.034,-0.005 0.049,-0.01c0.009,-0.003 0.019,-0.007 0.027,-0.01c0.016,-0.007 0.029,-0.013 0.041,-0.024c0.014,-0.008 0.02,-0.016 0.029,-0.023c0.007,-0.005 0.013,-0.009 0.025,-0.012c0.027,-0.009 0.068,-0.002 0.096,-0.007c0.08,-0.01 0.153,-0.039 0.217,-0.084c0.02,-0.014 0.059,-0.061 0.095,-0.088c0.006,-0.005 0.013,-0.01 0.02,-0.014c0.008,-0.005 0.017,-0.008 0.024,-0.008c0.006,-0 0.013,0.003 0.022,0.006c0.006,0.004 0.013,0.007 0.018,0.014c0.036,0.027 0.076,0.074 0.098,0.09c0.064,0.044 0.137,0.072 0.217,0.084c0.028,0.005 0.069,-0.002 0.096,0.007c0.012,0.003 0.02,0.007 0.025,0.012c0.009,0.007 0.016,0.013 0.029,0.023c0.022,0.017 0.047,0.027 0.075,0.036c0.003,-0 0.008,0.002 0.011,0.003c0.011,0.002 0.021,0.004 0.032,0.005c0.077,0.009 0.156,-0.008 0.222,-0.045c0.025,0.071 0.068,0.154 0.14,0.186c0.022,0.01 0.048,0.015 0.076,0.015c0.017,-0 0.056,-0.02 0.068,-0.015c0.002,-0 0.003,0.001 0.005,0.005c0.004,0.003 0.007,0.008 0.009,0.015c0.006,0.012 0.011,0.027 0.015,0.036c0.023,0.04 0.057,0.076 0.098,0.104c0.005,0.004 0.012,0.009 0.017,0.012c0.054,0.032 0.1,0.032 0.16,0.036c0.026,0.001 0.036,0.006 0.044,0.017c0.007,0.008 0.011,0.022 0.021,0.042c0.032,0.032 0.054,0.069 0.081,0.103Zm-0.448,-1.904c-0.015,0.009 -0.036,0.015 -0.051,0.024c0.008,-0.034 0.01,-0.078 0.012,-0.088c0.01,-0.08 0.015,-0.159 0.012,-0.239c-0.002,-0.032 -0,-0.072 -0.012,-0.106c0.012,0.003 0.025,0.008 0.032,0.013c0.041,0.022 0.063,0.068 0.079,0.107c0.009,0.022 0.033,0.132 0.068,0.179c-0.04,0.042 -0.086,0.08 -0.14,0.11Zm-0.235,1.329c0.001,-0.078 0.078,-0.161 0.138,-0.22c0.016,0.051 0.031,0.103 0.044,0.154c0.012,0.046 0.024,0.091 0.034,0.137c0.005,0.026 0.019,0.063 0.014,0.09c-0.043,0.007 -0.065,0.025 -0.109,0.005c-0.067,-0.029 -0.099,-0.102 -0.121,-0.166Zm-0.07,-1.55c-0.006,-0.114 -0.037,-0.23 -0.017,-0.342l0.006,0c0.089,0.005 0.133,0.063 0.17,0.13c0.007,0.014 0.014,0.026 0.021,0.036c-0.029,0.081 -0.105,0.13 -0.18,0.176Zm-0.302,1.52c-0.004,-0.017 0.013,-0.049 0.017,-0.063c0.011,-0.039 0.027,-0.076 0.042,-0.113c0.017,-0.042 0.035,-0.117 0.069,-0.161c0.053,0.115 0.085,0.256 0.168,0.355c-0.08,0.037 -0.183,0.051 -0.261,0.007c-0.017,-0.008 -0.029,-0.017 -0.035,-0.025Zm-0.056,-1.722c-0.012,-0.072 -0.017,-0.145 -0.039,-0.214c0.042,-0.022 0.083,-0.056 0.13,-0.058c0.076,-0.003 0.102,0.058 0.137,0.105c0.01,0.014 0.02,0.022 0.031,0.025c-0.049,0.087 -0.102,0.173 -0.163,0.254c-0.012,0.015 -0.022,0.042 -0.042,0.037c-0.017,-0.003 -0.025,-0.035 -0.03,-0.049c-0.012,-0.032 -0.017,-0.066 -0.024,-0.1Zm-0.372,1.549c-0.009,-0.007 -0.017,-0.017 -0.027,-0.023c-0.002,-0.061 0.051,-0.131 0.081,-0.18c0.03,-0.047 0.061,-0.094 0.096,-0.138c0.036,0.164 0.085,0.355 0.197,0.487c-0.053,-0.002 -0.104,-0.007 -0.154,-0.022c-0.075,-0.027 -0.136,-0.073 -0.193,-0.124Zm0.063,-1.569c-0.048,-0.086 -0.129,-0.233 -0.1,-0.335c0.008,-0.001 0.017,-0.003 0.025,-0.003c0.051,-0.002 0.093,0.019 0.13,0.047c0.041,0.032 0.076,0.093 0.131,0.108l0.001,0c-0.029,0.063 -0.067,0.124 -0.113,0.178c-0.009,0.008 -0.025,0.034 -0.039,0.042c-0.008,0.005 -0.008,0.007 -0.008,0.009c-0.011,-0.007 -0.021,-0.034 -0.027,-0.046Zm-0.432,1.691c-0.05,0.017 -0.101,0.02 -0.154,0.022c0.112,-0.132 0.161,-0.323 0.195,-0.487c0.035,0.044 0.066,0.093 0.096,0.14c0.031,0.051 0.081,0.12 0.08,0.181c-0.009,0.007 -0.017,0.015 -0.024,0.022c-0.056,0.051 -0.115,0.097 -0.193,0.122Zm0.132,-1.691c-0.007,0.01 -0.017,0.039 -0.029,0.046c-0.001,-0.002 -0.003,-0.005 -0.008,-0.007c-0.014,-0.01 -0.027,-0.029 -0.039,-0.042c-0.046,-0.054 -0.084,-0.115 -0.113,-0.18c0.02,-0.006 0.039,-0.02 0.057,-0.035c0.034,-0.03 0.065,-0.064 0.1,-0.088c0.027,-0.017 0.056,-0.029 0.093,-0.03l0.014,-0c0.008,-0 0.017,0.001 0.025,0.003c0.029,0.1 -0.052,0.249 -0.1,0.333Zm-0.355,0.164c-0.027,0.012 -0.034,-0.013 -0.049,-0.034c-0.061,-0.079 -0.113,-0.164 -0.161,-0.25c0.036,-0.017 0.051,-0.068 0.075,-0.095c0.071,-0.074 0.147,-0.022 0.221,0.016c-0.02,0.064 -0.027,0.131 -0.037,0.197c-0.005,0.038 -0.012,0.075 -0.023,0.11c-0.006,0.016 -0.012,0.051 -0.026,0.056Zm-0.304,1.598c0.081,-0.1 0.115,-0.24 0.167,-0.355c0.034,0.044 0.053,0.118 0.07,0.161c0.015,0.037 0.028,0.074 0.04,0.113c0.005,0.013 0.02,0.045 0.019,0.062c-0.009,0.009 -0.019,0.017 -0.036,0.027c-0.078,0.043 -0.181,0.029 -0.26,-0.008Zm-0.007,-1.54c-0.074,-0.046 -0.149,-0.093 -0.179,-0.175c0.029,-0.027 0.04,-0.084 0.067,-0.113c0.033,-0.034 0.073,-0.052 0.122,-0.054l0.007,0c0.02,0.112 -0.01,0.228 -0.017,0.342Zm-0.301,1.712c-0.005,-0.025 0.007,-0.062 0.012,-0.086c0.01,-0.047 0.022,-0.096 0.035,-0.144c0.014,-0.05 0.029,-0.103 0.044,-0.153c0.061,0.06 0.137,0.143 0.139,0.221c-0.02,0.059 -0.049,0.127 -0.108,0.159c-0.039,0.022 -0.073,0.015 -0.113,0.005c-0.004,0 -0.006,0 -0.009,-0.002Zm-0.005,-1.491c-0.052,-0.03 -0.1,-0.068 -0.139,-0.111c0.026,-0.038 0.043,-0.11 0.049,-0.132c0.017,-0.051 0.054,-0.164 0.129,-0.166c-0.01,0.03 -0.01,0.068 -0.012,0.098c-0.003,0.083 0.002,0.166 0.012,0.247c0.002,0.008 0.005,0.054 0.012,0.088c-0.014,-0.009 -0.036,-0.015 -0.051,-0.024Zm-0.145,0.242c-0.053,-0.002 -0.092,-0.036 -0.115,-0.078c-0,-0.002 0.001,-0.005 0.003,-0.008c0.027,-0.081 -0.012,-0.174 0.049,-0.242c0.034,0.044 0.029,0.118 0.034,0.167c0.002,0.056 0.01,0.11 0.029,0.161Zm-0.159,1.456c0.079,-0.078 0.091,-0.181 0.111,-0.284c0.054,0.032 0.102,0.059 0.13,0.118c-0.001,0.003 -0.001,0.007 -0.003,0.01c-0.022,0.053 -0.069,0.102 -0.122,0.13c-0.03,0.017 -0.067,0.029 -0.103,0.027c-0.003,0 -0.008,-0.001 -0.013,-0.001Zm-0.033,-1.532c-0.023,0.01 -0.047,0.018 -0.071,0.032c0.033,-0.091 0.07,-0.183 0.112,-0.274c0.151,-0.321 0.365,-0.622 0.678,-0.815c0.193,-0.118 0.416,-0.184 0.648,-0.184c0.238,-0 0.461,0.006 0.679,0.105c0.393,0.177 0.655,0.525 0.827,0.892c0.039,0.083 0.075,0.168 0.105,0.252c0.003,0.007 0.005,0.015 0.009,0.022c-0.024,-0.013 -0.048,-0.022 -0.073,-0.034c-0,0 -0.002,0 -0.004,-0.001c-0.032,-0.015 -0.032,-0.024 -0.033,-0.058c-0.004,-0.061 -0.004,-0.121 -0.029,-0.172c-0.009,-0.021 -0.022,-0.039 -0.041,-0.056c-0.001,-0.003 -0.005,-0.005 -0.008,-0.007c-0.007,-0.005 -0.012,-0.01 -0.02,-0.015c-0.011,-0.007 -0.024,-0.002 -0.029,0.007c-0.009,0.012 -0.005,0.005 -0.012,-0.015c-0.005,-0.019 -0.012,-0.036 -0.017,-0.055c-0.012,-0.038 -0.024,-0.077 -0.042,-0.116c-0.032,-0.068 -0.085,-0.127 -0.171,-0.127c-0.005,-0.002 -0.01,-0 -0.013,0.002c-0.006,0.001 -0.009,0.003 -0.011,0.008c-0.001,0.005 -0.003,0.009 -0.003,0.012c-0.005,-0.01 -0.01,-0.022 -0.017,-0.032c-0.019,-0.034 -0.039,-0.066 -0.069,-0.091c-0.032,-0.028 -0.073,-0.044 -0.117,-0.05c-0.013,-0.001 -0.025,0 -0.035,0c-0.007,0 -0.012,0.002 -0.017,0.002c-0.021,0.002 -0.038,0 -0.054,-0.022c-0.041,-0.054 -0.075,-0.111 -0.154,-0.115c-0.053,-0.001 -0.105,0.022 -0.149,0.048c-0.012,0.006 -0.022,0.011 -0.031,0.015c-0.038,0.015 -0.055,0.001 -0.094,-0.036c-0.066,-0.064 -0.135,-0.12 -0.239,-0.108c-0.006,0 -0.015,0.002 -0.022,0.002c-0.04,0.001 -0.079,-0.005 -0.12,-0.004c-0.006,0 -0.015,0.002 -0.022,0.002c-0.039,0.005 -0.072,0.022 -0.103,0.042c-0.01,0.007 -0.02,0.016 -0.029,0.024c-0.028,0.024 -0.05,0.059 -0.084,0.079c-0.017,0.011 -0.034,0.011 -0.052,0.006c-0.002,-0 -0.004,-0.002 -0.006,-0.002c-0.038,-0.014 -0.077,-0.048 -0.113,-0.058c-0.079,-0.022 -0.144,0.005 -0.189,0.066c-0.019,0.026 -0.031,0.058 -0.059,0.065l-0.004,-0c-0.005,-0 -0.01,0.001 -0.015,0.001c-0.008,0 -0.017,0 -0.025,-0.001c-0.017,-0.002 -0.036,-0.004 -0.051,-0c-0.025,0.005 -0.049,0.013 -0.071,0.027c-0.037,0.022 -0.064,0.055 -0.085,0.091c-0.008,0.015 -0.018,0.03 -0.023,0.046c-0,0.001 -0.002,0.003 -0.002,0.005c-0,-0.004 -0.002,-0.007 -0.005,-0.012c-0.002,-0.004 -0.005,-0.007 -0.01,-0.009c-0.004,-0.001 -0.005,-0.001 -0.009,-0.001l-0.005,-0c-0.086,-0.002 -0.138,0.057 -0.171,0.126c-0.018,0.038 -0.03,0.077 -0.042,0.117c-0.005,0.017 -0.008,0.034 -0.015,0.049c-0.002,0.004 -0.005,0.022 -0.01,0.024c-0,-0.002 -0.002,-0.004 -0.004,-0.005c-0.005,-0.009 -0.02,-0.014 -0.028,-0.007c-0.007,0.005 -0.014,0.01 -0.021,0.015c-0.003,0.002 -0.006,0.005 -0.008,0.007c-0.019,0.017 -0.03,0.035 -0.041,0.056c-0.023,0.051 -0.025,0.111 -0.027,0.172c-0.001,0.036 0,0.043 -0.034,0.058c0.006,0.003 0.002,0.003 0,0.005Zm-0.123,0.191c0.009,-0.031 0.019,-0.059 0.029,-0.09c0.007,-0.006 0.013,-0.012 0.02,-0.017c0.02,-0.017 0.042,-0.025 0.063,-0.033c0.001,0.04 0.015,0.082 0.03,0.121c0.01,0.027 0.022,0.058 0.041,0.083c-0.073,0.01 -0.144,-0.008 -0.183,-0.064Zm-0.046,1.366c0.034,-0.003 0.073,0.007 0.1,0.027c0,0.002 -0.002,0.005 -0.002,0.007c-0.015,0.037 -0.035,0.073 -0.059,0.106c-0.005,0.009 -0.012,0.016 -0.018,0.022c0.005,-0.055 -0.002,-0.115 -0.021,-0.162Zm-0.109,0.365c-0.004,-0.035 -0.007,-0.071 -0.009,-0.106c0.02,0.007 0.042,0.015 0.058,0.027c-0.007,0.037 -0.017,0.073 -0.049,0.079Z" style="fill:#fff;fill-rule:nonzero;"/><path d="M32.742,27.893l0.161,0.528c0.018,-0.034 0.098,-0.201 0.059,-0.339c-0.043,-0.15 -0.209,-0.185 -0.22,-0.189Z" style="fill:#fff;stroke:#fff;stroke-width:0.24px;"/><path d="M29.264,28.391l0.167,-0.525c-0.034,0.018 -0.195,0.109 -0.241,0.245c-0.05,0.148 0.067,0.271 0.074,0.28Z" style="fill:#fff;stroke:#fff;stroke-width:0.24px;"/></g></g></svg>